<svg xmlns="http://www.w3.org/2000/svg" xmlns:xlink="http://www.w3.org/1999/xlink" width="252" zoomAndPan="magnify" viewBox="0 0 189 189.000001" height="252" preserveAspectRatio="xMidYMid meet" version="1.0"><defs><g/><clipPath id="aa7ad8b660"><path d="M 0.496094 0 L 188.5 0 L 188.5 188.003906 L 0.496094 188.003906 Z M 0.496094 0 " clip-rule="nonzero"/></clipPath><clipPath id="1470d0fb92"><path d="M 0.667969 0 L 188.5 0 L 188.5 187.988281 L 0.667969 187.988281 Z M 0.667969 0 " clip-rule="nonzero"/></clipPath></defs><g clip-path="url(#aa7ad8b660)"><path fill="#ffffff" d="M 0.496094 0 L 188.503906 0 L 188.503906 188.003906 L 0.496094 188.003906 Z M 0.496094 0 " fill-opacity="1" fill-rule="nonzero"/><path fill="#ffffff" d="M 0.496094 0 L 188.503906 0 L 188.503906 188.003906 L 0.496094 188.003906 Z M 0.496094 0 " fill-opacity="1" fill-rule="nonzero"/></g><g clip-path="url(#1470d0fb92)"><path fill="#ff3f34" d="M 25.582031 188.011719 L 188.191406 188.011719 L 188.191406 174.398438 L 113.09375 99.902344 L 94.175781 80.984375 L 75.261719 99.902344 L 0.765625 174.398438 L 0.765625 188.011719 Z M 80.601562 128.894531 L 92.410156 128.894531 L 92.410156 141.304688 L 80.601562 141.304688 Z M 95.945312 128.894531 L 107.753906 128.894531 L 107.753906 141.304688 L 95.945312 141.304688 Z M 80.601562 144.238281 L 92.410156 144.238281 L 92.410156 156.648438 L 80.601562 156.648438 Z M 95.945312 144.238281 L 107.753906 144.238281 L 107.753906 156.648438 L 95.945312 156.648438 Z M 113.09375 13.597656 L 100.117188 -0.015625 L 126.742188 -0.015625 Z M 151.523438 13.597656 L 137.949219 -0.015625 L 164.574219 -0.015625 Z M 188.191406 11.792969 L 176.382812 -0.015625 L 188.191406 -0.015625 Z M 170.476562 4.722656 L 188.226562 22.472656 L 188.226562 50.261719 L 175.820312 37.851562 L 156.300781 18.9375 Z M 132.609375 80.984375 L 188.191406 136.566406 L 188.191406 164.359375 L 118.433594 94.597656 Z M 127.308594 75.683594 L 113.09375 89.859375 L 99.480469 75.683594 L 113.09375 62.070312 Z M 108.390625 56.730469 L 94.214844 70.90625 L 80.601562 56.730469 L 94.214844 42.550781 Z M 113.09375 51.425781 L 99.480469 37.8125 L 113.09375 23.636719 L 127.269531 37.8125 Z M 118.433594 56.730469 L 132.609375 42.550781 L 151.523438 62.070312 L 188.191406 98.734375 L 188.191406 126.527344 L 137.347656 75.683594 Z M 156.261719 56.730469 L 170.441406 42.550781 L 188.191406 60.300781 L 188.191406 88.09375 Z M 165.136719 37.8125 L 151.523438 51.425781 L 137.347656 37.8125 L 151.523438 23.636719 Z M 146.222656 18.898438 L 132.609375 32.511719 L 118.433594 18.898438 L 132.609375 4.722656 Z M 108.390625 18.898438 L 94.214844 32.511719 L 80.601562 18.898438 L 94.214844 4.722656 Z M 75.261719 13.597656 L 88.875 -0.015625 L 61.683594 -0.015625 Z M 37.429688 13.597656 L 50.441406 -0.015625 L 23.816406 -0.015625 Z M 0.765625 11.792969 L 12.570312 -0.015625 L 0.765625 -0.015625 Z M 17.910156 4.722656 L 0.765625 22.433594 L 0.765625 50.222656 L 13.171875 37.8125 L 32.089844 18.898438 Z M 56.34375 80.984375 L 0.765625 136.566406 L 0.765625 164.359375 L 69.957031 94.597656 Z M 61.082031 75.683594 L 75.261719 89.859375 L 89.4375 75.683594 L 75.261719 62.070312 Z M 75.261719 51.425781 L 89.4375 37.8125 L 75.261719 23.636719 L 61.082031 37.8125 Z M 69.957031 56.730469 L 56.34375 42.550781 L 37.429688 62.070312 L 0.765625 98.734375 L 0.765625 126.527344 L 51.003906 75.683594 Z M 32.089844 56.730469 L 17.910156 42.550781 L 0.765625 60.300781 L 0.765625 88.09375 Z M 23.214844 37.8125 L 37.390625 51.425781 L 51.003906 37.8125 L 37.429688 23.636719 Z M 42.167969 18.898438 L 56.34375 32.511719 L 69.957031 18.898438 L 56.34375 4.722656 Z M 42.167969 18.898438 " fill-opacity="1" fill-rule="nonzero"/></g><g fill="#ff3f34" fill-opacity="1"><g transform="translate(92.112628, 98.478954)"><g><path d="M 0.4375 -5.109375 C 0.46875 -5.242188 0.53125 -5.359375 0.625 -5.453125 C 0.726562 -5.546875 0.832031 -5.59375 0.9375 -5.59375 C 1.050781 -5.59375 1.140625 -5.570312 1.203125 -5.53125 C 1.265625 -5.488281 1.300781 -5.453125 1.3125 -5.421875 C 1.320312 -5.390625 1.332031 -5.332031 1.34375 -5.25 C 1.300781 -4.632812 1.28125 -4.078125 1.28125 -3.578125 C 1.28125 -3.078125 1.335938 -2.503906 1.453125 -1.859375 C 1.578125 -1.222656 1.707031 -0.90625 1.84375 -0.90625 C 2.0625 -0.90625 2.332031 -1.023438 2.65625 -1.265625 C 2.988281 -1.503906 3.226562 -1.753906 3.375 -2.015625 C 3.28125 -3.160156 3.234375 -4.144531 3.234375 -4.96875 C 3.234375 -5.132812 3.285156 -5.273438 3.390625 -5.390625 C 3.503906 -5.515625 3.632812 -5.578125 3.78125 -5.578125 C 4.03125 -5.578125 4.15625 -5.410156 4.15625 -5.078125 C 4.15625 -4.503906 4.195312 -3.660156 4.28125 -2.546875 C 4.363281 -1.441406 4.445312 -0.738281 4.53125 -0.4375 C 4.550781 -0.363281 4.5625 -0.285156 4.5625 -0.203125 C 4.5625 -0.117188 4.503906 -0.0390625 4.390625 0.03125 C 4.285156 0.101562 4.144531 0.140625 3.96875 0.140625 C 3.800781 0.140625 3.691406 0.046875 3.640625 -0.140625 C 3.617188 -0.296875 3.578125 -0.535156 3.515625 -0.859375 C 2.960938 -0.273438 2.40625 0.015625 1.84375 0.015625 C 1.570312 0.015625 1.332031 -0.0820312 1.125 -0.28125 C 0.925781 -0.476562 0.765625 -0.75 0.640625 -1.09375 C 0.429688 -1.757812 0.328125 -2.378906 0.328125 -2.953125 C 0.328125 -3.535156 0.363281 -4.253906 0.4375 -5.109375 Z M 0.4375 -5.109375 "/></g></g></g></svg>