<svg xmlns="http://www.w3.org/2000/svg" xmlns:xlink="http://www.w3.org/1999/xlink" width="500" zoomAndPan="magnify" viewBox="0 0 375 179.999997" height="240" preserveAspectRatio="xMidYMid meet" version="1.0"><defs><g/><clipPath id="6d1f8f0bd0"><path d="M 68.875 32.871094 L 136.375 32.871094 L 136.375 100.371094 L 68.875 100.371094 Z M 68.875 32.871094 " clip-rule="nonzero"/></clipPath></defs><g fill="#ffffff" fill-opacity="1"><g transform="translate(38.273759, 127.151976)"><g><path d="M 3.78125 -4.515625 L 3.78125 0 L 1.140625 0 L 1.140625 -12.8125 L 6.140625 -12.8125 C 7.109375 -12.8125 7.957031 -12.632812 8.6875 -12.28125 C 9.414062 -11.9375 9.976562 -11.4375 10.375 -10.78125 C 10.769531 -10.132812 10.96875 -9.398438 10.96875 -8.578125 C 10.96875 -7.316406 10.535156 -6.320312 9.671875 -5.59375 C 8.804688 -4.875 7.613281 -4.515625 6.09375 -4.515625 Z M 3.78125 -6.65625 L 6.140625 -6.65625 C 6.835938 -6.65625 7.367188 -6.816406 7.734375 -7.140625 C 8.109375 -7.472656 8.296875 -7.945312 8.296875 -8.5625 C 8.296875 -9.1875 8.109375 -9.691406 7.734375 -10.078125 C 7.367188 -10.460938 6.859375 -10.660156 6.203125 -10.671875 L 3.78125 -10.671875 Z M 3.78125 -6.65625 "/></g></g></g><g fill="#ffffff" fill-opacity="1"><g transform="translate(55.308452, 127.151976)"><g><path d="M 11.578125 0 L 8.9375 0 L 8.9375 -5.5 L 3.78125 -5.5 L 3.78125 0 L 1.140625 0 L 1.140625 -12.8125 L 3.78125 -12.8125 L 3.78125 -7.625 L 8.9375 -7.625 L 8.9375 -12.8125 L 11.578125 -12.8125 Z M 11.578125 0 "/></g></g></g><g fill="#ffffff" fill-opacity="1"><g transform="translate(73.452008, 127.151976)"><g><path d="M 8.859375 -5.5625 L 3.78125 -5.5625 L 3.78125 -2.125 L 9.734375 -2.125 L 9.734375 0 L 1.140625 0 L 1.140625 -12.8125 L 9.71875 -12.8125 L 9.71875 -10.671875 L 3.78125 -10.671875 L 3.78125 -7.625 L 8.859375 -7.625 Z M 8.859375 -5.5625 "/></g></g></g><g fill="#ffffff" fill-opacity="1"><g transform="translate(88.999418, 127.151976)"><g><path d="M 8.375 -2.640625 L 3.75 -2.640625 L 2.875 0 L 0.0625 0 L 4.828125 -12.8125 L 7.28125 -12.8125 L 12.078125 0 L 9.265625 0 Z M 4.46875 -4.78125 L 7.671875 -4.78125 L 6.0625 -9.578125 Z M 4.46875 -4.78125 "/></g></g></g><g fill="#ffffff" fill-opacity="1"><g transform="translate(106.535737, 127.151976)"><g><path d="M 5.15625 -5.140625 L 3.78125 -3.65625 L 3.78125 0 L 1.140625 0 L 1.140625 -12.8125 L 3.78125 -12.8125 L 3.78125 -7.015625 L 4.953125 -8.609375 L 8.21875 -12.8125 L 11.46875 -12.8125 L 6.90625 -7.125 L 11.59375 0 L 8.453125 0 Z M 5.15625 -5.140625 "/></g></g></g><g fill="#ffffff" fill-opacity="1"><g transform="translate(123.385616, 127.151976)"><g><path d="M 1.140625 0 L 1.140625 -12.8125 L 5.09375 -12.8125 C 6.21875 -12.8125 7.222656 -12.554688 8.109375 -12.046875 C 9.003906 -11.546875 9.695312 -10.828125 10.1875 -9.890625 C 10.6875 -8.953125 10.9375 -7.890625 10.9375 -6.703125 L 10.9375 -6.109375 C 10.9375 -4.921875 10.691406 -3.863281 10.203125 -2.9375 C 9.710938 -2.007812 9.019531 -1.289062 8.125 -0.78125 C 7.238281 -0.269531 6.234375 -0.0078125 5.109375 0 Z M 3.78125 -10.671875 L 3.78125 -2.125 L 5.0625 -2.125 C 6.09375 -2.125 6.878906 -2.457031 7.421875 -3.125 C 7.972656 -3.800781 8.253906 -4.769531 8.265625 -6.03125 L 8.265625 -6.703125 C 8.265625 -8.003906 7.992188 -8.988281 7.453125 -9.65625 C 6.910156 -10.332031 6.125 -10.671875 5.09375 -10.671875 Z M 3.78125 -10.671875 "/></g></g></g><g fill="#ffffff" fill-opacity="1"><g transform="translate(140.508311, 127.151976)"><g><path d="M 8.859375 -5.5625 L 3.78125 -5.5625 L 3.78125 -2.125 L 9.734375 -2.125 L 9.734375 0 L 1.140625 0 L 1.140625 -12.8125 L 9.71875 -12.8125 L 9.71875 -10.671875 L 3.78125 -10.671875 L 3.78125 -7.625 L 8.859375 -7.625 Z M 8.859375 -5.5625 "/></g></g></g><g fill="#ffffff" fill-opacity="1"><g transform="translate(156.055715, 127.151976)"><g><path d="M 5.5625 -7.046875 L 8.234375 -12.8125 L 11.125 -12.8125 L 6.90625 -4.65625 L 6.90625 0 L 4.21875 0 L 4.21875 -4.65625 L 0.015625 -12.8125 L 2.921875 -12.8125 Z M 5.5625 -7.046875 "/></g></g></g><g fill="#ffffff" fill-opacity="1"><g transform="translate(63.185386, 143.660324)"><g><path d="M 3.53125 -2.96875 L 1.8125 -2.96875 L 1.8125 0 L 0.84375 0 L 0.84375 -7.328125 L 3.265625 -7.328125 C 4.085938 -7.328125 4.722656 -7.132812 5.171875 -6.75 C 5.617188 -6.375 5.84375 -5.832031 5.84375 -5.125 C 5.84375 -4.664062 5.71875 -4.265625 5.46875 -3.921875 C 5.21875 -3.585938 4.875 -3.335938 4.4375 -3.171875 L 6.15625 -0.0625 L 6.15625 0 L 5.125 0 Z M 1.8125 -3.75 L 3.296875 -3.75 C 3.773438 -3.75 4.15625 -3.875 4.4375 -4.125 C 4.71875 -4.375 4.859375 -4.707031 4.859375 -5.125 C 4.859375 -5.570312 4.722656 -5.914062 4.453125 -6.15625 C 4.191406 -6.394531 3.804688 -6.519531 3.296875 -6.53125 L 1.8125 -6.53125 Z M 1.8125 -3.75 "/></g></g></g><g fill="#ffffff" fill-opacity="1"><g transform="translate(77.763214, 143.660324)"><g><path d="M 4.984375 -3.390625 L 1.8125 -3.390625 L 1.8125 -0.796875 L 5.5 -0.796875 L 5.5 0 L 0.84375 0 L 0.84375 -7.328125 L 5.453125 -7.328125 L 5.453125 -6.53125 L 1.8125 -6.53125 L 1.8125 -4.171875 L 4.984375 -4.171875 Z M 4.984375 -3.390625 "/></g></g></g><g fill="#ffffff" fill-opacity="1"><g transform="translate(91.853718, 143.660324)"><g><path d="M 6.46875 0 L 5.5 0 L 1.8125 -5.640625 L 1.8125 0 L 0.84375 0 L 0.84375 -7.328125 L 1.8125 -7.328125 L 5.515625 -1.65625 L 5.515625 -7.328125 L 6.46875 -7.328125 Z M 6.46875 0 "/></g></g></g><g fill="#ffffff" fill-opacity="1"><g transform="translate(107.431315, 143.660324)"><g><path d="M 5.90625 -6.53125 L 3.546875 -6.53125 L 3.546875 0 L 2.59375 0 L 2.59375 -6.53125 L 0.25 -6.53125 L 0.25 -7.328125 L 5.90625 -7.328125 Z M 5.90625 -6.53125 "/></g></g></g><g fill="#ffffff" fill-opacity="1"><g transform="translate(121.813207, 143.660324)"><g><path d="M 4.890625 -1.90625 L 1.828125 -1.90625 L 1.140625 0 L 0.140625 0 L 2.9375 -7.328125 L 3.78125 -7.328125 L 6.578125 0 L 5.59375 0 Z M 2.109375 -2.703125 L 4.609375 -2.703125 L 3.359375 -6.125 Z M 2.109375 -2.703125 "/></g></g></g><g fill="#ffffff" fill-opacity="1"><g transform="translate(136.767831, 143.660324)"><g><path d="M 1.8125 -0.796875 L 5.296875 -0.796875 L 5.296875 0 L 0.84375 0 L 0.84375 -7.328125 L 1.8125 -7.328125 Z M 1.8125 -0.796875 "/></g></g></g><g clip-path="url(#6d1f8f0bd0)"><path fill="#ff3f34" d="M 77.875 100.738281 L 136.570312 100.738281 L 136.570312 95.824219 L 109.460938 68.933594 L 102.632812 62.105469 L 68.914062 95.824219 L 68.914062 100.738281 Z M 97.734375 79.398438 L 101.996094 79.398438 L 101.996094 83.878906 L 97.734375 83.878906 Z M 103.273438 79.398438 L 107.535156 79.398438 L 107.535156 83.878906 L 103.273438 83.878906 Z M 97.734375 84.9375 L 101.996094 84.9375 L 101.996094 89.417969 L 97.734375 89.417969 Z M 103.273438 84.9375 L 107.535156 84.9375 L 107.535156 89.417969 L 103.273438 89.417969 Z M 109.460938 37.777344 L 104.777344 32.863281 L 114.390625 32.863281 Z M 123.335938 37.777344 L 118.433594 32.863281 L 128.046875 32.863281 Z M 136.570312 37.125 L 132.308594 32.863281 L 136.570312 32.863281 Z M 130.175781 34.574219 L 136.585938 40.980469 L 136.585938 51.011719 L 132.105469 46.535156 L 125.058594 39.707031 Z M 116.507812 62.105469 L 136.570312 82.167969 L 136.570312 92.199219 L 111.390625 67.019531 Z M 114.59375 60.191406 L 109.460938 65.308594 L 104.546875 60.191406 L 109.460938 55.277344 Z M 107.765625 53.347656 L 102.648438 58.464844 L 97.734375 53.347656 L 102.648438 48.230469 Z M 109.460938 51.433594 L 104.546875 46.519531 L 109.460938 41.402344 L 114.578125 46.519531 Z M 111.390625 53.347656 L 116.507812 48.230469 L 123.335938 55.277344 L 136.570312 68.511719 L 136.570312 78.542969 L 118.21875 60.191406 Z M 125.046875 53.347656 L 130.164062 48.230469 L 136.570312 54.636719 L 136.570312 64.671875 Z M 128.25 46.519531 L 123.335938 51.433594 L 118.21875 46.519531 L 123.335938 41.402344 Z M 121.421875 39.691406 L 116.507812 44.605469 L 111.390625 39.691406 L 116.507812 34.574219 Z M 107.765625 39.691406 L 102.648438 44.605469 L 97.734375 39.691406 L 102.648438 34.574219 Z M 95.804688 37.777344 L 100.71875 32.863281 L 90.90625 32.863281 Z M 82.148438 37.777344 L 86.847656 32.863281 L 77.234375 32.863281 Z M 68.914062 37.125 L 73.175781 32.863281 L 68.914062 32.863281 Z M 75.105469 34.574219 L 68.914062 40.96875 L 68.914062 51 L 80.222656 39.691406 Z M 88.976562 62.105469 L 68.914062 82.167969 L 68.914062 92.199219 L 93.890625 67.019531 Z M 90.6875 60.191406 L 95.804688 65.308594 L 100.921875 60.191406 L 95.804688 55.277344 Z M 95.804688 51.433594 L 100.921875 46.519531 L 95.804688 41.402344 L 90.6875 46.519531 Z M 93.890625 53.347656 L 88.976562 48.230469 L 82.148438 55.277344 L 68.914062 68.511719 L 68.914062 78.542969 L 87.050781 60.191406 Z M 80.222656 53.347656 L 75.105469 48.230469 L 68.914062 54.636719 L 68.914062 64.671875 Z M 77.019531 46.519531 L 82.136719 51.433594 L 87.050781 46.519531 L 82.148438 41.402344 Z M 83.859375 39.691406 L 88.976562 44.605469 L 93.890625 39.691406 L 88.976562 34.574219 Z M 83.859375 39.691406 " fill-opacity="1" fill-rule="nonzero"/></g><g fill="#ffffff" fill-opacity="1"><g transform="translate(171.064519, 78.006679)"><g><path d="M 5.890625 -4.6875 L 3.78125 -4.6875 L 3.78125 0 L 1.140625 0 L 1.140625 -12.8125 L 5.90625 -12.8125 C 7.414062 -12.8125 8.582031 -12.472656 9.40625 -11.796875 C 10.226562 -11.128906 10.640625 -10.175781 10.640625 -8.9375 C 10.640625 -8.070312 10.453125 -7.34375 10.078125 -6.75 C 9.703125 -6.164062 9.128906 -5.703125 8.359375 -5.359375 L 11.125 -0.125 L 11.125 0 L 8.296875 0 Z M 3.78125 -6.828125 L 5.921875 -6.828125 C 6.578125 -6.828125 7.085938 -6.992188 7.453125 -7.328125 C 7.816406 -7.671875 8 -8.140625 8 -8.734375 C 8 -9.335938 7.828125 -9.8125 7.484375 -10.15625 C 7.140625 -10.5 6.613281 -10.671875 5.90625 -10.671875 L 3.78125 -10.671875 Z M 3.78125 -6.828125 "/></g></g></g><g fill="#ffffff" fill-opacity="1"><g transform="translate(187.976005, 78.006679)"><g><path d="M 11.671875 -6.125 C 11.671875 -4.851562 11.445312 -3.742188 11 -2.796875 C 10.5625 -1.847656 9.925781 -1.113281 9.09375 -0.59375 C 8.257812 -0.0820312 7.304688 0.171875 6.234375 0.171875 C 5.171875 0.171875 4.222656 -0.0820312 3.390625 -0.59375 C 2.554688 -1.101562 1.910156 -1.832031 1.453125 -2.78125 C 0.992188 -3.726562 0.757812 -4.816406 0.75 -6.046875 L 0.75 -6.6875 C 0.75 -7.945312 0.976562 -9.054688 1.4375 -10.015625 C 1.894531 -10.972656 2.535156 -11.707031 3.359375 -12.21875 C 4.191406 -12.738281 5.140625 -13 6.203125 -13 C 7.273438 -13 8.226562 -12.738281 9.0625 -12.21875 C 9.894531 -11.707031 10.535156 -10.972656 10.984375 -10.015625 C 11.441406 -9.054688 11.671875 -7.945312 11.671875 -6.6875 Z M 9 -6.703125 C 9 -8.046875 8.753906 -9.066406 8.265625 -9.765625 C 7.785156 -10.460938 7.101562 -10.8125 6.21875 -10.8125 C 5.332031 -10.8125 4.644531 -10.46875 4.15625 -9.78125 C 3.675781 -9.09375 3.4375 -8.082031 3.4375 -6.75 L 3.4375 -6.125 C 3.4375 -4.8125 3.675781 -3.789062 4.15625 -3.0625 C 4.632812 -2.34375 5.328125 -1.984375 6.234375 -1.984375 C 7.117188 -1.984375 7.796875 -2.332031 8.265625 -3.03125 C 8.742188 -3.726562 8.988281 -4.742188 9 -6.078125 Z M 9 -6.703125 "/></g></g></g><g fill="#ffffff" fill-opacity="1"><g transform="translate(205.829145, 78.006679)"><g><path d="M 11.671875 -6.125 C 11.671875 -4.851562 11.445312 -3.742188 11 -2.796875 C 10.5625 -1.847656 9.925781 -1.113281 9.09375 -0.59375 C 8.257812 -0.0820312 7.304688 0.171875 6.234375 0.171875 C 5.171875 0.171875 4.222656 -0.0820312 3.390625 -0.59375 C 2.554688 -1.101562 1.910156 -1.832031 1.453125 -2.78125 C 0.992188 -3.726562 0.757812 -4.816406 0.75 -6.046875 L 0.75 -6.6875 C 0.75 -7.945312 0.976562 -9.054688 1.4375 -10.015625 C 1.894531 -10.972656 2.535156 -11.707031 3.359375 -12.21875 C 4.191406 -12.738281 5.140625 -13 6.203125 -13 C 7.273438 -13 8.226562 -12.738281 9.0625 -12.21875 C 9.894531 -11.707031 10.535156 -10.972656 10.984375 -10.015625 C 11.441406 -9.054688 11.671875 -7.945312 11.671875 -6.6875 Z M 9 -6.703125 C 9 -8.046875 8.753906 -9.066406 8.265625 -9.765625 C 7.785156 -10.460938 7.101562 -10.8125 6.21875 -10.8125 C 5.332031 -10.8125 4.644531 -10.46875 4.15625 -9.78125 C 3.675781 -9.09375 3.4375 -8.082031 3.4375 -6.75 L 3.4375 -6.125 C 3.4375 -4.8125 3.675781 -3.789062 4.15625 -3.0625 C 4.632812 -2.34375 5.328125 -1.984375 6.234375 -1.984375 C 7.117188 -1.984375 7.796875 -2.332031 8.265625 -3.03125 C 8.742188 -3.726562 8.988281 -4.742188 9 -6.078125 Z M 9 -6.703125 "/></g></g></g><g fill="#ffffff" fill-opacity="1"><g transform="translate(223.682288, 78.006679)"><g><path d="M 4.59375 -12.8125 L 7.890625 -3.515625 L 11.15625 -12.8125 L 14.625 -12.8125 L 14.625 0 L 11.984375 0 L 11.984375 -3.5 L 12.25 -9.546875 L 8.78125 0 L 6.96875 0 L 3.515625 -9.546875 L 3.78125 -3.5 L 3.78125 0 L 1.140625 0 L 1.140625 -12.8125 Z M 4.59375 -12.8125 "/></g></g></g><g fill="#ffffff" fill-opacity="1"><g transform="translate(244.879617, 78.006679)"><g/></g></g><g fill="#ffffff" fill-opacity="1"><g transform="translate(254.777102, 78.006679)"><g><path d="M 7.796875 -3.359375 C 7.796875 -3.859375 7.617188 -4.238281 7.265625 -4.5 C 6.910156 -4.769531 6.273438 -5.050781 5.359375 -5.34375 C 4.441406 -5.644531 3.71875 -5.941406 3.1875 -6.234375 C 1.726562 -7.015625 1 -8.070312 1 -9.40625 C 1 -10.101562 1.191406 -10.722656 1.578125 -11.265625 C 1.972656 -11.804688 2.535156 -12.226562 3.265625 -12.53125 C 3.992188 -12.84375 4.816406 -13 5.734375 -13 C 6.648438 -13 7.460938 -12.832031 8.171875 -12.5 C 8.890625 -12.164062 9.445312 -11.695312 9.84375 -11.09375 C 10.238281 -10.488281 10.4375 -9.800781 10.4375 -9.03125 L 7.796875 -9.03125 C 7.796875 -9.613281 7.609375 -10.066406 7.234375 -10.390625 C 6.867188 -10.722656 6.351562 -10.890625 5.6875 -10.890625 C 5.039062 -10.890625 4.535156 -10.753906 4.171875 -10.484375 C 3.816406 -10.210938 3.640625 -9.851562 3.640625 -9.40625 C 3.640625 -8.988281 3.847656 -8.640625 4.265625 -8.359375 C 4.691406 -8.078125 5.3125 -7.8125 6.125 -7.5625 C 7.625 -7.113281 8.71875 -6.550781 9.40625 -5.875 C 10.09375 -5.207031 10.4375 -4.375 10.4375 -3.375 C 10.4375 -2.269531 10.015625 -1.398438 9.171875 -0.765625 C 8.335938 -0.140625 7.210938 0.171875 5.796875 0.171875 C 4.804688 0.171875 3.90625 -0.00390625 3.09375 -0.359375 C 2.289062 -0.722656 1.675781 -1.21875 1.25 -1.84375 C 0.820312 -2.476562 0.609375 -3.207031 0.609375 -4.03125 L 3.25 -4.03125 C 3.25 -2.613281 4.097656 -1.90625 5.796875 -1.90625 C 6.421875 -1.90625 6.910156 -2.03125 7.265625 -2.28125 C 7.617188 -2.539062 7.796875 -2.898438 7.796875 -3.359375 Z M 7.796875 -3.359375 "/></g></g></g><g fill="#ffffff" fill-opacity="1"><g transform="translate(271.266166, 78.006679)"><g><path d="M 5.5625 -7.046875 L 8.234375 -12.8125 L 11.125 -12.8125 L 6.90625 -4.65625 L 6.90625 0 L 4.21875 0 L 4.21875 -4.65625 L 0.015625 -12.8125 L 2.921875 -12.8125 Z M 5.5625 -7.046875 "/></g></g></g><g fill="#ffffff" fill-opacity="1"><g transform="translate(287.816828, 78.006679)"><g><path d="M 7.796875 -3.359375 C 7.796875 -3.859375 7.617188 -4.238281 7.265625 -4.5 C 6.910156 -4.769531 6.273438 -5.050781 5.359375 -5.34375 C 4.441406 -5.644531 3.71875 -5.941406 3.1875 -6.234375 C 1.726562 -7.015625 1 -8.070312 1 -9.40625 C 1 -10.101562 1.191406 -10.722656 1.578125 -11.265625 C 1.972656 -11.804688 2.535156 -12.226562 3.265625 -12.53125 C 3.992188 -12.84375 4.816406 -13 5.734375 -13 C 6.648438 -13 7.460938 -12.832031 8.171875 -12.5 C 8.890625 -12.164062 9.445312 -11.695312 9.84375 -11.09375 C 10.238281 -10.488281 10.4375 -9.800781 10.4375 -9.03125 L 7.796875 -9.03125 C 7.796875 -9.613281 7.609375 -10.066406 7.234375 -10.390625 C 6.867188 -10.722656 6.351562 -10.890625 5.6875 -10.890625 C 5.039062 -10.890625 4.535156 -10.753906 4.171875 -10.484375 C 3.816406 -10.210938 3.640625 -9.851562 3.640625 -9.40625 C 3.640625 -8.988281 3.847656 -8.640625 4.265625 -8.359375 C 4.691406 -8.078125 5.3125 -7.8125 6.125 -7.5625 C 7.625 -7.113281 8.71875 -6.550781 9.40625 -5.875 C 10.09375 -5.207031 10.4375 -4.375 10.4375 -3.375 C 10.4375 -2.269531 10.015625 -1.398438 9.171875 -0.765625 C 8.335938 -0.140625 7.210938 0.171875 5.796875 0.171875 C 4.804688 0.171875 3.90625 -0.00390625 3.09375 -0.359375 C 2.289062 -0.722656 1.675781 -1.21875 1.25 -1.84375 C 0.820312 -2.476562 0.609375 -3.207031 0.609375 -4.03125 L 3.25 -4.03125 C 3.25 -2.613281 4.097656 -1.90625 5.796875 -1.90625 C 6.421875 -1.90625 6.910156 -2.03125 7.265625 -2.28125 C 7.617188 -2.539062 7.796875 -2.898438 7.796875 -3.359375 Z M 7.796875 -3.359375 "/></g></g></g><g fill="#ffffff" fill-opacity="1"><g transform="translate(304.305887, 78.006679)"><g><path d="M 10.796875 -10.671875 L 6.875 -10.671875 L 6.875 0 L 4.21875 0 L 4.21875 -10.671875 L 0.359375 -10.671875 L 0.359375 -12.8125 L 10.796875 -12.8125 Z M 10.796875 -10.671875 "/></g></g></g><g fill="#ffffff" fill-opacity="1"><g transform="translate(320.86535, 78.006679)"><g><path d="M 8.859375 -5.5625 L 3.78125 -5.5625 L 3.78125 -2.125 L 9.734375 -2.125 L 9.734375 0 L 1.140625 0 L 1.140625 -12.8125 L 9.71875 -12.8125 L 9.71875 -10.671875 L 3.78125 -10.671875 L 3.78125 -7.625 L 8.859375 -7.625 Z M 8.859375 -5.5625 "/></g></g></g><g fill="#ffffff" fill-opacity="1"><g transform="translate(336.412754, 78.006679)"><g><path d="M 4.59375 -12.8125 L 7.890625 -3.515625 L 11.15625 -12.8125 L 14.625 -12.8125 L 14.625 0 L 11.984375 0 L 11.984375 -3.5 L 12.25 -9.546875 L 8.78125 0 L 6.96875 0 L 3.515625 -9.546875 L 3.78125 -3.5 L 3.78125 0 L 1.140625 0 L 1.140625 -12.8125 Z M 4.59375 -12.8125 "/></g></g></g></svg>